<svg width="1334" height="462" viewBox="0 0 1334 462" fill="none" xmlns="http://www.w3.org/2000/svg">
<path d="M249.471 184.745C99.0915 168.258 45.4792 214.162 0 251.662V376.444H1334V91.6425C1253.33 40.5657 1247.86 15.6738 1153.74 2.74293C999.015 -18.5165 983.943 88.7331 812.152 154.357C640.36 219.981 423.021 203.772 249.471 184.745Z" fill="#E83A30"/>
<path d="M249.471 295.857C125.124 271.947 45.4792 319.003 0 348.509V446.69H1334V260.501C1334 234.339 1331.72 264.424 1174.39 203.957C1056.66 158.707 983.943 220.313 812.151 271.947C640.36 323.582 508.871 345.734 249.471 295.857Z" fill="#FF805D"/>
<path d="M185.716 354.84C35.3357 347.374 45.4792 388.511 0 405.492V462H1334V354.84C1319.39 349.326 1240.55 389.223 1162.08 382.196C1063.98 373.413 945.536 303.052 784.735 340.527C400.003 430.19 359.265 363.457 185.716 354.84Z" fill="#FDBB96"/>
</svg>
