<svg width="496" height="454" viewBox="0 0 496 454" fill="none" xmlns="http://www.w3.org/2000/svg">
<g filter="url(#filter0_d)">
<rect x="20" y="14" width="456" height="414" rx="15" fill="white"/>
</g>
<path d="M48.3594 53.1172H53.3359V55H46.0156V43.625H48.3594V53.1172ZM60.2922 54.1406C59.7349 54.8177 58.9641 55.1562 57.9797 55.1562C57.0734 55.1562 56.3807 54.8958 55.9016 54.375C55.4276 53.8542 55.1854 53.0911 55.175 52.0859V46.5469H57.4328V52.0078C57.4328 52.888 57.8339 53.3281 58.6359 53.3281C59.4016 53.3281 59.9276 53.0625 60.2141 52.5312V46.5469H62.4797V55H60.3547L60.2922 54.1406ZM68.4984 53.3359C68.9151 53.3359 69.2536 53.2214 69.5141 52.9922C69.7745 52.763 69.9099 52.4583 69.9203 52.0781H72.0375C72.0323 52.651 71.876 53.1771 71.5688 53.6562C71.2615 54.1302 70.8396 54.5 70.3031 54.7656C69.7719 55.026 69.1833 55.1562 68.5375 55.1562C67.3292 55.1562 66.376 54.7734 65.6781 54.0078C64.9802 53.237 64.6313 52.1745 64.6313 50.8203V50.6719C64.6313 49.3698 64.9776 48.3307 65.6703 47.5547C66.363 46.7786 67.3135 46.3906 68.5219 46.3906C69.5792 46.3906 70.4255 46.6927 71.0609 47.2969C71.7016 47.8958 72.0271 48.6953 72.0375 49.6953H69.9203C69.9099 49.2578 69.7745 48.9036 69.5141 48.6328C69.2536 48.3568 68.9099 48.2188 68.4828 48.2188C67.9568 48.2188 67.5583 48.4115 67.2875 48.7969C67.0219 49.1771 66.8891 49.7969 66.8891 50.6562V50.8906C66.8891 51.7604 67.0219 52.3854 67.2875 52.7656C67.5531 53.1458 67.9568 53.3359 68.4984 53.3359ZM78.8766 48.6641C78.5693 48.6224 78.2984 48.6016 78.0641 48.6016C77.2099 48.6016 76.65 48.8906 76.3844 49.4688V55H74.1266V46.5469H76.2594L76.3219 47.5547C76.775 46.7786 77.4026 46.3906 78.2047 46.3906C78.4547 46.3906 78.6891 46.4245 78.9078 46.4922L78.8766 48.6641ZM80.1375 50.6953C80.1375 49.8568 80.299 49.1094 80.6219 48.4531C80.9448 47.7969 81.4083 47.2891 82.0125 46.9297C82.6219 46.5703 83.3276 46.3906 84.1297 46.3906C85.2703 46.3906 86.2 46.7396 86.9188 47.4375C87.6427 48.1354 88.0464 49.0833 88.1297 50.2812L88.1453 50.8594C88.1453 52.1562 87.7833 53.1979 87.0594 53.9844C86.3354 54.7656 85.3641 55.1562 84.1453 55.1562C82.9266 55.1562 81.9526 54.7656 81.2234 53.9844C80.4995 53.2031 80.1375 52.1406 80.1375 50.7969V50.6953ZM82.3953 50.8594C82.3953 51.6615 82.5464 52.276 82.8484 52.7031C83.1505 53.125 83.5828 53.3359 84.1453 53.3359C84.6922 53.3359 85.1193 53.1276 85.4266 52.7109C85.7339 52.2891 85.8875 51.6172 85.8875 50.6953C85.8875 49.9089 85.7339 49.2995 85.4266 48.8672C85.1193 48.4349 84.687 48.2188 84.1297 48.2188C83.5776 48.2188 83.1505 48.4349 82.8484 48.8672C82.5464 49.2943 82.3953 49.9583 82.3953 50.8594ZM101.691 52.6562H97.5812L96.8 55H94.3078L98.5422 43.625H100.714L104.972 55H102.48L101.691 52.6562ZM98.2141 50.7578H101.058L99.6281 46.5L98.2141 50.7578ZM108.389 46.5469L108.459 47.5234C109.064 46.7682 109.873 46.3906 110.889 46.3906C111.785 46.3906 112.452 46.6536 112.889 47.1797C113.327 47.7057 113.551 48.4922 113.561 49.5391V55H111.303V49.5938C111.303 49.1146 111.199 48.7682 110.991 48.5547C110.782 48.3359 110.436 48.2266 109.952 48.2266C109.316 48.2266 108.84 48.4974 108.522 49.0391V55H106.264V46.5469H108.389ZM121.142 54.1406C120.585 54.8177 119.814 55.1562 118.83 55.1562C117.923 55.1562 117.231 54.8958 116.752 54.375C116.278 53.8542 116.035 53.0911 116.025 52.0859V46.5469H118.283V52.0078C118.283 52.888 118.684 53.3281 119.486 53.3281C120.252 53.3281 120.778 53.0625 121.064 52.5312V46.5469H123.33V55H121.205L121.142 54.1406ZM130.731 55C130.627 54.7969 130.552 54.5443 130.505 54.2422C129.958 54.8516 129.247 55.1562 128.372 55.1562C127.544 55.1562 126.856 54.9167 126.309 54.4375C125.768 53.9583 125.497 53.3542 125.497 52.625C125.497 51.7292 125.828 51.0417 126.489 50.5625C127.156 50.0833 128.117 49.8411 129.372 49.8359H130.411V49.3516C130.411 48.9609 130.309 48.6484 130.106 48.4141C129.908 48.1797 129.593 48.0625 129.161 48.0625C128.781 48.0625 128.481 48.1536 128.262 48.3359C128.049 48.5182 127.942 48.7682 127.942 49.0859H125.684C125.684 48.5964 125.835 48.1432 126.137 47.7266C126.44 47.3099 126.867 46.9844 127.419 46.75C127.971 46.5104 128.591 46.3906 129.278 46.3906C130.32 46.3906 131.145 46.6536 131.755 47.1797C132.369 47.7005 132.677 48.4349 132.677 49.3828V53.0469C132.682 53.849 132.794 54.4557 133.012 54.8672V55H130.731ZM128.864 53.4297C129.197 53.4297 129.505 53.3568 129.786 53.2109C130.067 53.0599 130.276 52.8594 130.411 52.6094V51.1562H129.567C128.437 51.1562 127.835 51.5469 127.762 52.3281L127.755 52.4609C127.755 52.7422 127.854 52.974 128.052 53.1562C128.249 53.3385 128.52 53.4297 128.864 53.4297ZM137.594 55H135.328V43H137.594V55Z" fill="black"/>
<path d="M87.2625 398.352H82.7625V403H80.4187V391.625H87.825V393.523H82.7625V396.461H87.2625V398.352ZM93.5547 403.156C92.3151 403.156 91.3047 402.776 90.5234 402.016C89.7474 401.255 89.3594 400.242 89.3594 398.977V398.758C89.3594 397.909 89.5234 397.151 89.8516 396.484C90.1797 395.812 90.6432 395.297 91.2422 394.938C91.8464 394.573 92.5339 394.391 93.3047 394.391C94.4609 394.391 95.3698 394.755 96.0312 395.484C96.6979 396.214 97.0312 397.247 97.0312 398.586V399.508H91.6484C91.7214 400.06 91.9401 400.503 92.3047 400.836C92.6745 401.169 93.1406 401.336 93.7031 401.336C94.5729 401.336 95.2526 401.021 95.7422 400.391L96.8516 401.633C96.513 402.112 96.0547 402.487 95.4766 402.758C94.8984 403.023 94.2578 403.156 93.5547 403.156ZM93.2969 396.219C92.849 396.219 92.4844 396.37 92.2031 396.672C91.9271 396.974 91.75 397.406 91.6719 397.969H94.8125V397.789C94.8021 397.289 94.6667 396.904 94.4062 396.633C94.1458 396.357 93.776 396.219 93.2969 396.219ZM102.175 400.242L103.745 394.547H106.105L103.253 403H101.097L98.2453 394.547H100.605L102.175 400.242ZM144.606 391.625L147.528 399.875L150.434 391.625H153.512V403H151.161V399.891L151.395 394.523L148.325 403H146.716L143.653 394.531L143.887 399.891V403H141.544V391.625H144.606ZM161.109 403C161.005 402.797 160.93 402.544 160.883 402.242C160.336 402.852 159.625 403.156 158.75 403.156C157.922 403.156 157.234 402.917 156.688 402.438C156.146 401.958 155.875 401.354 155.875 400.625C155.875 399.729 156.206 399.042 156.867 398.562C157.534 398.083 158.495 397.841 159.75 397.836H160.789V397.352C160.789 396.961 160.688 396.648 160.484 396.414C160.286 396.18 159.971 396.062 159.539 396.062C159.159 396.062 158.859 396.154 158.641 396.336C158.427 396.518 158.32 396.768 158.32 397.086H156.062C156.062 396.596 156.214 396.143 156.516 395.727C156.818 395.31 157.245 394.984 157.797 394.75C158.349 394.51 158.969 394.391 159.656 394.391C160.698 394.391 161.523 394.654 162.133 395.18C162.747 395.701 163.055 396.435 163.055 397.383V401.047C163.06 401.849 163.172 402.456 163.391 402.867V403H161.109ZM159.242 401.43C159.576 401.43 159.883 401.357 160.164 401.211C160.445 401.06 160.654 400.859 160.789 400.609V399.156H159.945C158.815 399.156 158.214 399.547 158.141 400.328L158.133 400.461C158.133 400.742 158.232 400.974 158.43 401.156C158.628 401.339 158.898 401.43 159.242 401.43ZM170.339 396.664C170.032 396.622 169.761 396.602 169.527 396.602C168.672 396.602 168.112 396.891 167.847 397.469V403H165.589V394.547H167.722L167.784 395.555C168.237 394.779 168.865 394.391 169.667 394.391C169.917 394.391 170.152 394.424 170.37 394.492L170.339 396.664ZM212.294 400.656H208.184L207.403 403H204.911L209.145 391.625H211.317L215.575 403H213.083L212.294 400.656ZM208.817 398.758H211.661L210.231 394.5L208.817 398.758ZM224.906 398.852C224.906 400.206 224.617 401.263 224.039 402.023C223.461 402.779 222.654 403.156 221.617 403.156C220.701 403.156 219.969 402.805 219.422 402.102L219.32 403H217.289V391H219.547V395.305C220.068 394.695 220.753 394.391 221.602 394.391C222.633 394.391 223.44 394.771 224.023 395.531C224.612 396.286 224.906 397.352 224.906 398.727V398.852ZM222.648 398.688C222.648 397.833 222.513 397.211 222.242 396.82C221.971 396.424 221.568 396.227 221.031 396.227C220.312 396.227 219.818 396.521 219.547 397.109V400.445C219.823 401.039 220.323 401.336 221.047 401.336C221.776 401.336 222.255 400.977 222.484 400.258C222.594 399.914 222.648 399.391 222.648 398.688ZM231.855 396.664C231.547 396.622 231.277 396.602 231.042 396.602C230.188 396.602 229.628 396.891 229.363 397.469V403H227.105V394.547H229.238L229.3 395.555C229.753 394.779 230.381 394.391 231.183 394.391C231.433 394.391 231.667 394.424 231.886 394.492L231.855 396.664ZM270.45 391.625L273.372 399.875L276.278 391.625H279.356V403H277.005V399.891L277.239 394.523L274.169 403H272.559L269.497 394.531L269.731 399.891V403H267.387V391.625H270.45ZM286.953 403C286.849 402.797 286.773 402.544 286.727 402.242C286.18 402.852 285.469 403.156 284.594 403.156C283.766 403.156 283.078 402.917 282.531 402.438C281.99 401.958 281.719 401.354 281.719 400.625C281.719 399.729 282.049 399.042 282.711 398.562C283.378 398.083 284.339 397.841 285.594 397.836H286.633V397.352C286.633 396.961 286.531 396.648 286.328 396.414C286.13 396.18 285.815 396.062 285.383 396.062C285.003 396.062 284.703 396.154 284.484 396.336C284.271 396.518 284.164 396.768 284.164 397.086H281.906C281.906 396.596 282.057 396.143 282.359 395.727C282.661 395.31 283.089 394.984 283.641 394.75C284.193 394.51 284.812 394.391 285.5 394.391C286.542 394.391 287.367 394.654 287.977 395.18C288.591 395.701 288.898 396.435 288.898 397.383V401.047C288.904 401.849 289.016 402.456 289.234 402.867V403H286.953ZM285.086 401.43C285.419 401.43 285.727 401.357 286.008 401.211C286.289 401.06 286.497 400.859 286.633 400.609V399.156H285.789C284.659 399.156 284.057 399.547 283.984 400.328L283.977 400.461C283.977 400.742 284.076 400.974 284.273 401.156C284.471 401.339 284.742 401.43 285.086 401.43ZM293.816 403H291.55V394.547H293.816V403ZM291.417 392.359C291.417 392.021 291.529 391.742 291.753 391.523C291.982 391.305 292.292 391.195 292.683 391.195C293.068 391.195 293.376 391.305 293.605 391.523C293.834 391.742 293.948 392.021 293.948 392.359C293.948 392.703 293.831 392.984 293.597 393.203C293.368 393.422 293.063 393.531 292.683 393.531C292.303 393.531 291.995 393.422 291.761 393.203C291.532 392.984 291.417 392.703 291.417 392.359ZM334.708 391.625H337.052V399.5C337.052 400.224 336.89 400.865 336.567 401.422C336.249 401.974 335.799 402.401 335.216 402.703C334.632 403.005 333.973 403.156 333.239 403.156C332.036 403.156 331.098 402.852 330.427 402.242C329.755 401.628 329.419 400.76 329.419 399.641H331.778C331.778 400.198 331.895 400.609 332.13 400.875C332.364 401.141 332.734 401.273 333.239 401.273C333.687 401.273 334.044 401.12 334.309 400.812C334.575 400.505 334.708 400.068 334.708 399.5V391.625ZM344.773 402.141C344.216 402.818 343.445 403.156 342.461 403.156C341.555 403.156 340.862 402.896 340.383 402.375C339.909 401.854 339.667 401.091 339.656 400.086V394.547H341.914V400.008C341.914 400.888 342.315 401.328 343.117 401.328C343.883 401.328 344.409 401.062 344.695 400.531V394.547H346.961V403H344.836L344.773 402.141ZM351.542 394.547L351.612 395.523C352.217 394.768 353.027 394.391 354.042 394.391C354.938 394.391 355.605 394.654 356.042 395.18C356.48 395.706 356.704 396.492 356.714 397.539V403H354.456V397.594C354.456 397.115 354.352 396.768 354.144 396.555C353.935 396.336 353.589 396.227 353.105 396.227C352.469 396.227 351.993 396.497 351.675 397.039V403H349.417V394.547H351.542ZM397.458 391.625H399.802V399.5C399.802 400.224 399.64 400.865 399.317 401.422C398.999 401.974 398.549 402.401 397.966 402.703C397.382 403.005 396.723 403.156 395.989 403.156C394.786 403.156 393.848 402.852 393.177 402.242C392.505 401.628 392.169 400.76 392.169 399.641H394.528C394.528 400.198 394.645 400.609 394.88 400.875C395.114 401.141 395.484 401.273 395.989 401.273C396.437 401.273 396.794 401.12 397.059 400.812C397.325 400.505 397.458 400.068 397.458 399.5V391.625ZM407.523 402.141C406.966 402.818 406.195 403.156 405.211 403.156C404.305 403.156 403.612 402.896 403.133 402.375C402.659 401.854 402.417 401.091 402.406 400.086V394.547H404.664V400.008C404.664 400.888 405.065 401.328 405.867 401.328C406.633 401.328 407.159 401.062 407.445 400.531V394.547H409.711V403H407.586L407.523 402.141ZM414.597 403H412.331V391H414.597V403Z" fill="#898484"/>
<path d="M51.5 368H440" stroke="#4F4F4F"/>
<path d="M67 323H429" stroke="#E5E5E5"/>
<path d="M65 278H427" stroke="#E5E5E5"/>
<path d="M65 233H427" stroke="#E5E5E5"/>
<path d="M65 185H427" stroke="#E5E5E5"/>
<path d="M65 140H427" stroke="#E5E5E5"/>
<path d="M63 94H425" stroke="#E5E5E5"/>
<path d="M41.4277 327H35.5801V325.84L38.3398 322.898C38.7188 322.484 38.998 322.123 39.1777 321.814C39.3613 321.506 39.4531 321.213 39.4531 320.936C39.4531 320.557 39.3574 320.26 39.166 320.045C38.9746 319.826 38.7012 319.717 38.3457 319.717C37.9629 319.717 37.6602 319.85 37.4375 320.115C37.2188 320.377 37.1094 320.723 37.1094 321.152H35.4102C35.4102 320.633 35.5332 320.158 35.7793 319.729C36.0293 319.299 36.3809 318.963 36.834 318.721C37.2871 318.475 37.8008 318.352 38.375 318.352C39.2539 318.352 39.9355 318.562 40.4199 318.984C40.9082 319.406 41.1523 320.002 41.1523 320.771C41.1523 321.193 41.043 321.623 40.8242 322.061C40.6055 322.498 40.2305 323.008 39.6992 323.59L37.7598 325.635H41.4277V327ZM48.8129 323.473C48.8129 324.652 48.5687 325.555 48.0805 326.18C47.5922 326.805 46.8773 327.117 45.9359 327.117C45.0062 327.117 44.2953 326.811 43.8031 326.197C43.3109 325.584 43.059 324.705 43.0473 323.561V321.99C43.0473 320.799 43.2934 319.895 43.7855 319.277C44.2816 318.66 44.9945 318.352 45.9242 318.352C46.8539 318.352 47.5648 318.658 48.057 319.271C48.5492 319.881 48.8012 320.758 48.8129 321.902V323.473ZM47.1195 321.75C47.1195 321.043 47.0219 320.529 46.8266 320.209C46.6352 319.885 46.3344 319.723 45.9242 319.723C45.5258 319.723 45.2309 319.877 45.0395 320.186C44.852 320.49 44.7523 320.969 44.7406 321.621V323.695C44.7406 324.391 44.8344 324.908 45.0219 325.248C45.2133 325.584 45.518 325.752 45.9359 325.752C46.35 325.752 46.6488 325.59 46.8324 325.266C47.016 324.941 47.1117 324.445 47.1195 323.777V321.75Z" fill="#4F4F4F"/>
<path d="M40.5898 278.789H41.5566V280.154H40.5898V282H38.8965V280.154H35.3984L35.3223 279.088L38.8789 273.469H40.5898V278.789ZM37.0098 278.789H38.8965V275.777L38.7852 275.971L37.0098 278.789ZM48.8129 278.473C48.8129 279.652 48.5687 280.555 48.0805 281.18C47.5922 281.805 46.8773 282.117 45.9359 282.117C45.0062 282.117 44.2953 281.811 43.8031 281.197C43.3109 280.584 43.059 279.705 43.0473 278.561V276.99C43.0473 275.799 43.2934 274.895 43.7855 274.277C44.2816 273.66 44.9945 273.352 45.9242 273.352C46.8539 273.352 47.5648 273.658 48.057 274.271C48.5492 274.881 48.8012 275.758 48.8129 276.902V278.473ZM47.1195 276.75C47.1195 276.043 47.0219 275.529 46.8266 275.209C46.6352 274.885 46.3344 274.723 45.9242 274.723C45.5258 274.723 45.2309 274.877 45.0395 275.186C44.852 275.49 44.7523 275.969 44.7406 276.621V278.695C44.7406 279.391 44.8344 279.908 45.0219 280.248C45.2133 280.584 45.518 280.752 45.9359 280.752C46.35 280.752 46.6488 280.59 46.8324 280.266C47.016 279.941 47.1117 279.445 47.1195 278.777V276.75Z" fill="#4F4F4F"/>
<path d="M40.1738 228.381V229.775H40.0098C39.2441 229.787 38.627 229.986 38.1582 230.373C37.6934 230.76 37.4141 231.297 37.3203 231.984C37.7734 231.523 38.3457 231.293 39.0371 231.293C39.7793 231.293 40.3691 231.559 40.8066 232.09C41.2441 232.621 41.4629 233.32 41.4629 234.188C41.4629 234.742 41.3418 235.244 41.0996 235.693C40.8613 236.143 40.5215 236.492 40.0801 236.742C39.6426 236.992 39.1465 237.117 38.5918 237.117C37.6934 237.117 36.9668 236.805 36.4121 236.18C35.8613 235.555 35.5859 234.721 35.5859 233.678V233.068C35.5859 232.143 35.7598 231.326 36.1074 230.619C36.459 229.908 36.9609 229.359 37.6133 228.973C38.2695 228.582 39.0293 228.385 39.8926 228.381H40.1738ZM38.5215 232.652C38.248 232.652 38 232.725 37.7773 232.869C37.5547 233.01 37.3906 233.197 37.2852 233.432V233.947C37.2852 234.514 37.3965 234.957 37.6191 235.277C37.8418 235.594 38.1543 235.752 38.5566 235.752C38.9199 235.752 39.2129 235.609 39.4355 235.324C39.6621 235.035 39.7754 234.662 39.7754 234.205C39.7754 233.74 39.6621 233.365 39.4355 233.08C39.209 232.795 38.9043 232.652 38.5215 232.652ZM48.8129 233.473C48.8129 234.652 48.5687 235.555 48.0805 236.18C47.5922 236.805 46.8773 237.117 45.9359 237.117C45.0062 237.117 44.2953 236.811 43.8031 236.197C43.3109 235.584 43.059 234.705 43.0473 233.561V231.99C43.0473 230.799 43.2934 229.895 43.7855 229.277C44.2816 228.66 44.9945 228.352 45.9242 228.352C46.8539 228.352 47.5648 228.658 48.057 229.271C48.5492 229.881 48.8012 230.758 48.8129 231.902V233.473ZM47.1195 231.75C47.1195 231.043 47.0219 230.529 46.8266 230.209C46.6352 229.885 46.3344 229.723 45.9242 229.723C45.5258 229.723 45.2309 229.877 45.0395 230.186C44.852 230.49 44.7523 230.969 44.7406 231.621V233.695C44.7406 234.391 44.8344 234.908 45.0219 235.248C45.2133 235.584 45.518 235.752 45.9359 235.752C46.35 235.752 46.6488 235.59 46.8324 235.266C47.016 234.941 47.1117 234.445 47.1195 233.777V231.75Z" fill="#4F4F4F"/>
<path d="M41.1406 185.736C41.1406 186.15 41.0371 186.518 40.8301 186.838C40.623 187.158 40.3379 187.414 39.9746 187.605C40.3887 187.805 40.7168 188.08 40.959 188.432C41.2012 188.779 41.3223 189.189 41.3223 189.662C41.3223 190.42 41.0645 191.02 40.5488 191.461C40.0332 191.898 39.332 192.117 38.4453 192.117C37.5586 192.117 36.8555 191.896 36.3359 191.455C35.8164 191.014 35.5566 190.416 35.5566 189.662C35.5566 189.189 35.6777 188.777 35.9199 188.426C36.1621 188.074 36.4883 187.801 36.8984 187.605C36.5352 187.414 36.25 187.158 36.043 186.838C35.8398 186.518 35.7383 186.15 35.7383 185.736C35.7383 185.01 35.9805 184.432 36.4648 184.002C36.9492 183.568 37.6074 183.352 38.4395 183.352C39.2676 183.352 39.9238 183.566 40.4082 183.996C40.8965 184.422 41.1406 185.002 41.1406 185.736ZM39.623 189.539C39.623 189.168 39.5156 188.871 39.3008 188.648C39.0859 188.426 38.7969 188.314 38.4336 188.314C38.0742 188.314 37.7871 188.426 37.5723 188.648C37.3574 188.867 37.25 189.164 37.25 189.539C37.25 189.902 37.3555 190.195 37.5664 190.418C37.7773 190.641 38.0703 190.752 38.4453 190.752C38.8125 190.752 39.0996 190.645 39.3066 190.43C39.5176 190.215 39.623 189.918 39.623 189.539ZM39.4473 185.818C39.4473 185.486 39.3594 185.221 39.1836 185.021C39.0078 184.818 38.7598 184.717 38.4395 184.717C38.123 184.717 37.877 184.814 37.7012 185.01C37.5254 185.205 37.4375 185.475 37.4375 185.818C37.4375 186.158 37.5254 186.432 37.7012 186.639C37.877 186.846 38.125 186.949 38.4453 186.949C38.7656 186.949 39.0117 186.846 39.1836 186.639C39.3594 186.432 39.4473 186.158 39.4473 185.818ZM48.8129 188.473C48.8129 189.652 48.5687 190.555 48.0805 191.18C47.5922 191.805 46.8773 192.117 45.9359 192.117C45.0062 192.117 44.2953 191.811 43.8031 191.197C43.3109 190.584 43.059 189.705 43.0473 188.561V186.99C43.0473 185.799 43.2934 184.895 43.7855 184.277C44.2816 183.66 44.9945 183.352 45.9242 183.352C46.8539 183.352 47.5648 183.658 48.057 184.271C48.5492 184.881 48.8012 185.758 48.8129 186.902V188.473ZM47.1195 186.75C47.1195 186.043 47.0219 185.529 46.8266 185.209C46.6352 184.885 46.3344 184.723 45.9242 184.723C45.5258 184.723 45.2309 184.877 45.0395 185.186C44.852 185.49 44.7523 185.969 44.7406 186.621V188.695C44.7406 189.391 44.8344 189.908 45.0219 190.248C45.2133 190.584 45.518 190.752 45.9359 190.752C46.35 190.752 46.6488 190.59 46.8324 190.266C47.016 189.941 47.1117 189.445 47.1195 188.777V186.75Z" fill="#4F4F4F"/>
<path d="M35.6934 143H34V136.473L31.9785 137.1V135.723L35.5117 134.457H35.6934V143ZM44.8129 139.473C44.8129 140.652 44.5687 141.555 44.0805 142.18C43.5922 142.805 42.8773 143.117 41.9359 143.117C41.0062 143.117 40.2953 142.811 39.8031 142.197C39.3109 141.584 39.059 140.705 39.0473 139.561V137.99C39.0473 136.799 39.2934 135.895 39.7855 135.277C40.2816 134.66 40.9945 134.352 41.9242 134.352C42.8539 134.352 43.5648 134.658 44.057 135.271C44.5492 135.881 44.8012 136.758 44.8129 137.902V139.473ZM43.1195 137.75C43.1195 137.043 43.0219 136.529 42.8266 136.209C42.6352 135.885 42.3344 135.723 41.9242 135.723C41.5258 135.723 41.2309 135.877 41.0395 136.186C40.852 136.49 40.7523 136.969 40.7406 137.621V139.695C40.7406 140.391 40.8344 140.908 41.0219 141.248C41.2133 141.584 41.518 141.752 41.9359 141.752C42.35 141.752 42.6488 141.59 42.8324 141.266C43.016 140.941 43.1117 140.445 43.1195 139.777V137.75ZM52.3035 139.473C52.3035 140.652 52.0594 141.555 51.5711 142.18C51.0828 142.805 50.368 143.117 49.4266 143.117C48.4969 143.117 47.7859 142.811 47.2937 142.197C46.8016 141.584 46.5496 140.705 46.5379 139.561V137.99C46.5379 136.799 46.784 135.895 47.2762 135.277C47.7723 134.66 48.4852 134.352 49.4148 134.352C50.3445 134.352 51.0555 134.658 51.5477 135.271C52.0398 135.881 52.2918 136.758 52.3035 137.902V139.473ZM50.6102 137.75C50.6102 137.043 50.5125 136.529 50.3172 136.209C50.1258 135.885 49.825 135.723 49.4148 135.723C49.0164 135.723 48.7215 135.877 48.5301 136.186C48.3426 136.49 48.243 136.969 48.2312 137.621V139.695C48.2312 140.391 48.325 140.908 48.5125 141.248C48.7039 141.584 49.0086 141.752 49.4266 141.752C49.8406 141.752 50.1395 141.59 50.323 141.266C50.5066 140.941 50.6023 140.445 50.6102 139.777V137.75Z" fill="#4F4F4F"/>
<path d="M35.6934 98H34V91.4727L31.9785 92.0996V90.7227L35.5117 89.457H35.6934V98ZM43.184 98H41.4906V91.4727L39.4691 92.0996V90.7227L43.0023 89.457H43.184V98ZM52.3035 94.4727C52.3035 95.6523 52.0594 96.5547 51.5711 97.1797C51.0828 97.8047 50.368 98.1172 49.4266 98.1172C48.4969 98.1172 47.7859 97.8105 47.2937 97.1973C46.8016 96.584 46.5496 95.7051 46.5379 94.5605V92.9902C46.5379 91.7988 46.784 90.8945 47.2762 90.2773C47.7723 89.6602 48.4852 89.3516 49.4148 89.3516C50.3445 89.3516 51.0555 89.6582 51.5477 90.2715C52.0398 90.8809 52.2918 91.7578 52.3035 92.9023V94.4727ZM50.6102 92.75C50.6102 92.043 50.5125 91.5293 50.3172 91.209C50.1258 90.8848 49.825 90.7227 49.4148 90.7227C49.0164 90.7227 48.7215 90.877 48.5301 91.1855C48.3426 91.4902 48.243 91.9688 48.2312 92.6211V94.6953C48.2312 95.3906 48.325 95.9082 48.5125 96.248C48.7039 96.584 49.0086 96.752 49.4266 96.752C49.8406 96.752 50.1395 96.5898 50.323 96.2656C50.5066 95.9414 50.6023 95.4453 50.6102 94.7773V92.75Z" fill="#4F4F4F"/>
<path d="M87 338.5C98 336.167 117.1 314.7 127.5 247.5C137.9 180.3 160.948 220 165.5 247.5C169.5 271.667 180 317.5 209.5 317.5C235 317.5 240.311 289.631 249.5 262.5C260 231.5 269.64 135.5 291 135.5C312.5 135.5 312.5 231.5 342.5 231.5C372.5 231.5 381 176.5 389.5 135.5C398 94.4998 401 76 424 90.9999" stroke="#7764E4" stroke-width="3"/>
<defs>
<filter id="filter0_d" x="0" y="0" width="496" height="454" filterUnits="userSpaceOnUse" color-interpolation-filters="sRGB">
<feFlood flood-opacity="0" result="BackgroundImageFix"/>
<feColorMatrix in="SourceAlpha" type="matrix" values="0 0 0 0 0 0 0 0 0 0 0 0 0 0 0 0 0 0 127 0"/>
<feOffset dy="6"/>
<feGaussianBlur stdDeviation="10"/>
<feColorMatrix type="matrix" values="0 0 0 0 0 0 0 0 0 0 0 0 0 0 0 0 0 0 0.25 0"/>
<feBlend mode="normal" in2="BackgroundImageFix" result="effect1_dropShadow"/>
<feBlend mode="normal" in="SourceGraphic" in2="effect1_dropShadow" result="shape"/>
</filter>
</defs>
</svg>
