<svg width="496" height="454" viewBox="0 0 496 454" fill="none" xmlns="http://www.w3.org/2000/svg">
<g filter="url(#filter0_d)">
<rect x="20" y="14" width="456" height="414" rx="15" fill="white"/>
</g>
<path d="M50.2188 52.1797L52.7969 43.625H55.4062L51.4453 55H49L45.0547 43.625H47.6562L50.2188 52.1797ZM60.6828 55.1562C59.4432 55.1562 58.4328 54.776 57.6516 54.0156C56.8755 53.2552 56.4875 52.2422 56.4875 50.9766V50.7578C56.4875 49.9089 56.6516 49.151 56.9797 48.4844C57.3078 47.8125 57.7714 47.2969 58.3703 46.9375C58.9745 46.5729 59.662 46.3906 60.4328 46.3906C61.5891 46.3906 62.4979 46.7552 63.1594 47.4844C63.826 48.2135 64.1594 49.2474 64.1594 50.5859V51.5078H58.7766C58.8495 52.0599 59.0682 52.5026 59.4328 52.8359C59.8026 53.1693 60.2688 53.3359 60.8313 53.3359C61.701 53.3359 62.3807 53.0208 62.8703 52.3906L63.9797 53.6328C63.6411 54.112 63.1828 54.487 62.6047 54.7578C62.0266 55.0234 61.3859 55.1562 60.6828 55.1562ZM60.425 48.2188C59.9771 48.2188 59.6125 48.3698 59.3313 48.6719C59.0552 48.974 58.8781 49.4062 58.8 49.9688H61.9406V49.7891C61.9302 49.2891 61.7948 48.9036 61.5344 48.6328C61.274 48.3568 60.9042 48.2188 60.425 48.2188ZM68.3266 46.5469L68.3969 47.5234C69.001 46.7682 69.8109 46.3906 70.8266 46.3906C71.7224 46.3906 72.3891 46.6536 72.8266 47.1797C73.2641 47.7057 73.488 48.4922 73.4984 49.5391V55H71.2406V49.5938C71.2406 49.1146 71.1365 48.7682 70.9281 48.5547C70.7198 48.3359 70.3734 48.2266 69.8891 48.2266C69.2536 48.2266 68.7771 48.4974 68.4594 49.0391V55H66.2016V46.5469H68.3266ZM75.6656 50.7109C75.6656 49.3932 75.9599 48.3438 76.5484 47.5625C77.1422 46.7812 77.9521 46.3906 78.9781 46.3906C79.801 46.3906 80.4807 46.6979 81.0172 47.3125V43H83.2828V55H81.2437L81.1344 54.1016C80.5719 54.8047 79.8479 55.1562 78.9625 55.1562C77.9677 55.1562 77.1682 54.7656 76.5641 53.9844C75.9651 53.1979 75.6656 52.1068 75.6656 50.7109ZM77.9234 50.875C77.9234 51.6667 78.0615 52.2734 78.3375 52.6953C78.6135 53.1172 79.0146 53.3281 79.5406 53.3281C80.2385 53.3281 80.7307 53.0339 81.0172 52.4453V49.1094C80.7359 48.5208 80.249 48.2266 79.5562 48.2266C78.4677 48.2266 77.9234 49.1094 77.9234 50.875ZM90.7313 55C90.6271 54.7969 90.5516 54.5443 90.5047 54.2422C89.9578 54.8516 89.2469 55.1562 88.3719 55.1562C87.5438 55.1562 86.8563 54.9167 86.3094 54.4375C85.7677 53.9583 85.4969 53.3542 85.4969 52.625C85.4969 51.7292 85.8276 51.0417 86.4891 50.5625C87.1557 50.0833 88.1167 49.8411 89.3719 49.8359H90.4109V49.3516C90.4109 48.9609 90.3094 48.6484 90.1063 48.4141C89.9083 48.1797 89.5932 48.0625 89.1609 48.0625C88.7807 48.0625 88.4813 48.1536 88.2625 48.3359C88.049 48.5182 87.9422 48.7682 87.9422 49.0859H85.6844C85.6844 48.5964 85.8354 48.1432 86.1375 47.7266C86.4396 47.3099 86.8667 46.9844 87.4188 46.75C87.9708 46.5104 88.5906 46.3906 89.2781 46.3906C90.3198 46.3906 91.1453 46.6536 91.7547 47.1797C92.3693 47.7005 92.6766 48.4349 92.6766 49.3828V53.0469C92.6818 53.849 92.7938 54.4557 93.0125 54.8672V55H90.7313ZM88.8641 53.4297C89.1974 53.4297 89.5047 53.3568 89.7859 53.2109C90.0672 53.0599 90.2755 52.8594 90.4109 52.6094V51.1562H89.5672C88.437 51.1562 87.8354 51.5469 87.7625 52.3281L87.7547 52.4609C87.7547 52.7422 87.8536 52.974 88.0516 53.1562C88.2495 53.3385 88.5203 53.4297 88.8641 53.4297ZM99.7891 52.6641C99.7891 52.388 99.651 52.1719 99.375 52.0156C99.1042 51.8542 98.6667 51.7109 98.0625 51.5859C96.0521 51.1641 95.0469 50.3099 95.0469 49.0234C95.0469 48.2734 95.3568 47.6484 95.9766 47.1484C96.6016 46.6432 97.4167 46.3906 98.4219 46.3906C99.4948 46.3906 100.352 46.6432 100.992 47.1484C101.638 47.6536 101.961 48.3099 101.961 49.1172H99.7031C99.7031 48.7943 99.599 48.5286 99.3906 48.3203C99.1823 48.1068 98.8568 48 98.4141 48C98.0339 48 97.7396 48.0859 97.5312 48.2578C97.3229 48.4297 97.2188 48.6484 97.2188 48.9141C97.2188 49.1641 97.3359 49.3672 97.5703 49.5234C97.8099 49.6745 98.2109 49.8073 98.7734 49.9219C99.3359 50.0312 99.8099 50.1562 100.195 50.2969C101.388 50.7344 101.984 51.4922 101.984 52.5703C101.984 53.3411 101.654 53.9661 100.992 54.4453C100.331 54.9193 99.4766 55.1562 98.4297 55.1562C97.7214 55.1562 97.0911 55.0312 96.5391 54.7812C95.9922 54.526 95.5625 54.1797 95.25 53.7422C94.9375 53.2995 94.7812 52.8229 94.7812 52.3125H96.9219C96.9427 52.7135 97.0911 53.0208 97.3672 53.2344C97.6432 53.4479 98.013 53.5547 98.4766 53.5547C98.9089 53.5547 99.2344 53.474 99.4531 53.3125C99.6771 53.1458 99.7891 52.9297 99.7891 52.6641ZM108.678 50.7109C108.678 49.3932 108.972 48.3438 109.561 47.5625C110.155 46.7812 110.965 46.3906 111.991 46.3906C112.814 46.3906 113.493 46.6979 114.03 47.3125V43H116.295V55H114.256L114.147 54.1016C113.584 54.8047 112.86 55.1562 111.975 55.1562C110.98 55.1562 110.181 54.7656 109.577 53.9844C108.978 53.1979 108.678 52.1068 108.678 50.7109ZM110.936 50.875C110.936 51.6667 111.074 52.2734 111.35 52.6953C111.626 53.1172 112.027 53.3281 112.553 53.3281C113.251 53.3281 113.743 53.0339 114.03 52.4453V49.1094C113.748 48.5208 113.261 48.2266 112.569 48.2266C111.48 48.2266 110.936 49.1094 110.936 50.875ZM118.494 50.6953C118.494 49.8568 118.655 49.1094 118.978 48.4531C119.301 47.7969 119.765 47.2891 120.369 46.9297C120.978 46.5703 121.684 46.3906 122.486 46.3906C123.627 46.3906 124.556 46.7396 125.275 47.4375C125.999 48.1354 126.403 49.0833 126.486 50.2812L126.502 50.8594C126.502 52.1562 126.14 53.1979 125.416 53.9844C124.692 54.7656 123.72 55.1562 122.502 55.1562C121.283 55.1562 120.309 54.7656 119.58 53.9844C118.856 53.2031 118.494 52.1406 118.494 50.7969V50.6953ZM120.752 50.8594C120.752 51.6615 120.903 52.276 121.205 52.7031C121.507 53.125 121.939 53.3359 122.502 53.3359C123.048 53.3359 123.476 53.1276 123.783 52.7109C124.09 52.2891 124.244 51.6172 124.244 50.6953C124.244 49.9089 124.09 49.2995 123.783 48.8672C123.476 48.4349 123.043 48.2188 122.486 48.2188C121.934 48.2188 121.507 48.4349 121.205 48.8672C120.903 49.2943 120.752 49.9583 120.752 50.8594ZM133.27 52.6641C133.27 52.388 133.132 52.1719 132.856 52.0156C132.585 51.8542 132.148 51.7109 131.544 51.5859C129.533 51.1641 128.528 50.3099 128.528 49.0234C128.528 48.2734 128.838 47.6484 129.458 47.1484C130.083 46.6432 130.898 46.3906 131.903 46.3906C132.976 46.3906 133.833 46.6432 134.473 47.1484C135.119 47.6536 135.442 48.3099 135.442 49.1172H133.184C133.184 48.7943 133.08 48.5286 132.872 48.3203C132.664 48.1068 132.338 48 131.895 48C131.515 48 131.221 48.0859 131.012 48.2578C130.804 48.4297 130.7 48.6484 130.7 48.9141C130.7 49.1641 130.817 49.3672 131.052 49.5234C131.291 49.6745 131.692 49.8073 132.255 49.9219C132.817 50.0312 133.291 50.1562 133.677 50.2969C134.869 50.7344 135.466 51.4922 135.466 52.5703C135.466 53.3411 135.135 53.9661 134.473 54.4453C133.812 54.9193 132.958 55.1562 131.911 55.1562C131.203 55.1562 130.572 55.0312 130.02 54.7812C129.473 54.526 129.044 54.1797 128.731 53.7422C128.419 53.2995 128.262 52.8229 128.262 52.3125H130.403C130.424 52.7135 130.572 53.0208 130.848 53.2344C131.124 53.4479 131.494 53.5547 131.958 53.5547C132.39 53.5547 132.716 53.474 132.934 53.3125C133.158 53.1458 133.27 52.9297 133.27 52.6641ZM151.269 43.625V51.1172C151.269 52.362 150.878 53.3464 150.097 54.0703C149.321 54.7943 148.258 55.1562 146.909 55.1562C145.581 55.1562 144.527 54.8047 143.745 54.1016C142.964 53.3984 142.566 52.4323 142.55 51.2031V43.625H144.894V51.1328C144.894 51.8776 145.071 52.4219 145.425 52.7656C145.784 53.1042 146.279 53.2734 146.909 53.2734C148.227 53.2734 148.896 52.5807 148.917 51.1953V43.625H151.269ZM147.331 40.5781H149.792L147.628 43H145.792L147.331 40.5781ZM156.225 55H153.959V43H156.225V55ZM161.595 44.4688V46.5469H163.041V48.2031H161.595V52.4219C161.595 52.7344 161.655 52.9583 161.775 53.0938C161.895 53.2292 162.124 53.2969 162.463 53.2969C162.713 53.2969 162.934 53.2786 163.127 53.2422V54.9531C162.684 55.0885 162.228 55.1562 161.759 55.1562C160.176 55.1562 159.369 54.3568 159.338 52.7578V48.2031H158.103V46.5469H159.338V44.4688H161.595ZM167.481 55H165.216V46.5469H167.481V55ZM165.083 44.3594C165.083 44.0208 165.195 43.7422 165.419 43.5234C165.648 43.3047 165.958 43.1953 166.348 43.1953C166.734 43.1953 167.041 43.3047 167.27 43.5234C167.499 43.7422 167.614 44.0208 167.614 44.3594C167.614 44.7031 167.497 44.9844 167.262 45.2031C167.033 45.4219 166.729 45.5312 166.348 45.5312C165.968 45.5312 165.661 45.4219 165.427 45.2031C165.197 44.9844 165.083 44.7031 165.083 44.3594ZM172.266 46.5469L172.336 47.4922C172.935 46.7578 173.745 46.3906 174.766 46.3906C175.854 46.3906 176.602 46.8203 177.008 47.6797C177.602 46.8203 178.448 46.3906 179.547 46.3906C180.464 46.3906 181.146 46.6589 181.594 47.1953C182.042 47.7266 182.266 48.5286 182.266 49.6016V55H180V49.6094C180 49.1302 179.906 48.7812 179.719 48.5625C179.531 48.3385 179.201 48.2266 178.727 48.2266C178.049 48.2266 177.581 48.5495 177.32 49.1953L177.328 55H175.07V49.6172C175.07 49.1276 174.974 48.7734 174.781 48.5547C174.589 48.3359 174.26 48.2266 173.797 48.2266C173.156 48.2266 172.693 48.4922 172.406 49.0234V55H170.148V46.5469H172.266ZM184.456 50.6953C184.456 49.8568 184.618 49.1094 184.941 48.4531C185.264 47.7969 185.727 47.2891 186.331 46.9297C186.941 46.5703 187.646 46.3906 188.448 46.3906C189.589 46.3906 190.519 46.7396 191.238 47.4375C191.961 48.1354 192.365 49.0833 192.448 50.2812L192.464 50.8594C192.464 52.1562 192.102 53.1979 191.378 53.9844C190.654 54.7656 189.683 55.1562 188.464 55.1562C187.245 55.1562 186.271 54.7656 185.542 53.9844C184.818 53.2031 184.456 52.1406 184.456 50.7969V50.6953ZM186.714 50.8594C186.714 51.6615 186.865 52.276 187.167 52.7031C187.469 53.125 187.902 53.3359 188.464 53.3359C189.011 53.3359 189.438 53.1276 189.745 52.7109C190.053 52.2891 190.206 51.6172 190.206 50.6953C190.206 49.9089 190.053 49.2995 189.745 48.8672C189.438 48.4349 189.006 48.2188 188.448 48.2188C187.896 48.2188 187.469 48.4349 187.167 48.8672C186.865 49.2943 186.714 49.9583 186.714 50.8594ZM199.233 52.6641C199.233 52.388 199.095 52.1719 198.819 52.0156C198.548 51.8542 198.11 51.7109 197.506 51.5859C195.496 51.1641 194.491 50.3099 194.491 49.0234C194.491 48.2734 194.801 47.6484 195.42 47.1484C196.045 46.6432 196.86 46.3906 197.866 46.3906C198.939 46.3906 199.795 46.6432 200.436 47.1484C201.082 47.6536 201.405 48.3099 201.405 49.1172H199.147C199.147 48.7943 199.043 48.5286 198.834 48.3203C198.626 48.1068 198.301 48 197.858 48C197.478 48 197.183 48.0859 196.975 48.2578C196.767 48.4297 196.663 48.6484 196.663 48.9141C196.663 49.1641 196.78 49.3672 197.014 49.5234C197.254 49.6745 197.655 49.8073 198.217 49.9219C198.78 50.0312 199.254 50.1562 199.639 50.2969C200.832 50.7344 201.428 51.4922 201.428 52.5703C201.428 53.3411 201.097 53.9661 200.436 54.4453C199.774 54.9193 198.92 55.1562 197.873 55.1562C197.165 55.1562 196.535 55.0312 195.983 54.7812C195.436 54.526 195.006 54.1797 194.694 53.7422C194.381 53.2995 194.225 52.8229 194.225 52.3125H196.366C196.386 52.7135 196.535 53.0208 196.811 53.2344C197.087 53.4479 197.457 53.5547 197.92 53.5547C198.353 53.5547 198.678 53.474 198.897 53.3125C199.121 53.1458 199.233 52.9297 199.233 52.6641ZM211.684 43.625L214.606 51.875L217.512 43.625H220.591V55H218.239V51.8906L218.473 46.5234L215.403 55H213.794L210.731 46.5312L210.966 51.8906V55H208.622V43.625H211.684ZM227.18 55.1562C225.94 55.1562 224.93 54.776 224.148 54.0156C223.372 53.2552 222.984 52.2422 222.984 50.9766V50.7578C222.984 49.9089 223.148 49.151 223.477 48.4844C223.805 47.8125 224.268 47.2969 224.867 46.9375C225.471 46.5729 226.159 46.3906 226.93 46.3906C228.086 46.3906 228.995 46.7552 229.656 47.4844C230.323 48.2135 230.656 49.2474 230.656 50.5859V51.5078H225.273C225.346 52.0599 225.565 52.5026 225.93 52.8359C226.299 53.1693 226.766 53.3359 227.328 53.3359C228.198 53.3359 228.878 53.0208 229.367 52.3906L230.477 53.6328C230.138 54.112 229.68 54.487 229.102 54.7578C228.523 55.0234 227.883 55.1562 227.18 55.1562ZM226.922 48.2188C226.474 48.2188 226.109 48.3698 225.828 48.6719C225.552 48.974 225.375 49.4062 225.297 49.9688H228.438V49.7891C228.427 49.2891 228.292 48.9036 228.031 48.6328C227.771 48.3568 227.401 48.2188 226.922 48.2188ZM237.323 52.6641C237.323 52.388 237.185 52.1719 236.909 52.0156C236.639 51.8542 236.201 51.7109 235.597 51.5859C233.586 51.1641 232.581 50.3099 232.581 49.0234C232.581 48.2734 232.891 47.6484 233.511 47.1484C234.136 46.6432 234.951 46.3906 235.956 46.3906C237.029 46.3906 237.886 46.6432 238.527 47.1484C239.172 47.6536 239.495 48.3099 239.495 49.1172H237.238C237.238 48.7943 237.133 48.5286 236.925 48.3203C236.717 48.1068 236.391 48 235.948 48C235.568 48 235.274 48.0859 235.066 48.2578C234.857 48.4297 234.753 48.6484 234.753 48.9141C234.753 49.1641 234.87 49.3672 235.105 49.5234C235.344 49.6745 235.745 49.8073 236.308 49.9219C236.87 50.0312 237.344 50.1562 237.73 50.2969C238.922 50.7344 239.519 51.4922 239.519 52.5703C239.519 53.3411 239.188 53.9661 238.527 54.4453C237.865 54.9193 237.011 55.1562 235.964 55.1562C235.256 55.1562 234.626 55.0312 234.073 54.7812C233.527 54.526 233.097 54.1797 232.784 53.7422C232.472 53.2995 232.316 52.8229 232.316 52.3125H234.456C234.477 52.7135 234.626 53.0208 234.902 53.2344C235.178 53.4479 235.547 53.5547 236.011 53.5547C236.443 53.5547 236.769 53.474 236.988 53.3125C237.211 53.1458 237.323 52.9297 237.323 52.6641ZM245.67 55.1562C244.431 55.1562 243.42 54.776 242.639 54.0156C241.863 53.2552 241.475 52.2422 241.475 50.9766V50.7578C241.475 49.9089 241.639 49.151 241.967 48.4844C242.295 47.8125 242.759 47.2969 243.358 46.9375C243.962 46.5729 244.649 46.3906 245.42 46.3906C246.577 46.3906 247.485 46.7552 248.147 47.4844C248.814 48.2135 249.147 49.2474 249.147 50.5859V51.5078H243.764C243.837 52.0599 244.056 52.5026 244.42 52.8359C244.79 53.1693 245.256 53.3359 245.819 53.3359C246.689 53.3359 247.368 53.0208 247.858 52.3906L248.967 53.6328C248.629 54.112 248.17 54.487 247.592 54.7578C247.014 55.0234 246.373 55.1562 245.67 55.1562ZM245.413 48.2188C244.965 48.2188 244.6 48.3698 244.319 48.6719C244.043 48.974 243.866 49.4062 243.788 49.9688H246.928V49.7891C246.918 49.2891 246.782 48.9036 246.522 48.6328C246.261 48.3568 245.892 48.2188 245.413 48.2188ZM255.814 52.6641C255.814 52.388 255.676 52.1719 255.4 52.0156C255.129 51.8542 254.692 51.7109 254.087 51.5859C252.077 51.1641 251.072 50.3099 251.072 49.0234C251.072 48.2734 251.382 47.6484 252.002 47.1484C252.627 46.6432 253.442 46.3906 254.447 46.3906C255.52 46.3906 256.377 46.6432 257.017 47.1484C257.663 47.6536 257.986 48.3099 257.986 49.1172H255.728C255.728 48.7943 255.624 48.5286 255.416 48.3203C255.207 48.1068 254.882 48 254.439 48C254.059 48 253.765 48.0859 253.556 48.2578C253.348 48.4297 253.244 48.6484 253.244 48.9141C253.244 49.1641 253.361 49.3672 253.595 49.5234C253.835 49.6745 254.236 49.8073 254.798 49.9219C255.361 50.0312 255.835 50.1562 256.22 50.2969C257.413 50.7344 258.009 51.4922 258.009 52.5703C258.009 53.3411 257.679 53.9661 257.017 54.4453C256.356 54.9193 255.502 55.1562 254.455 55.1562C253.746 55.1562 253.116 55.0312 252.564 54.7812C252.017 54.526 251.587 54.1797 251.275 53.7422C250.962 53.2995 250.806 52.8229 250.806 52.3125H252.947C252.968 52.7135 253.116 53.0208 253.392 53.2344C253.668 53.4479 254.038 53.5547 254.502 53.5547C254.934 53.5547 255.259 53.474 255.478 53.3125C255.702 53.1458 255.814 52.9297 255.814 52.6641Z" fill="black"/>
<path d="M87.2625 398.352H82.7625V403H80.4187V391.625H87.825V393.523H82.7625V396.461H87.2625V398.352ZM93.5547 403.156C92.3151 403.156 91.3047 402.776 90.5234 402.016C89.7474 401.255 89.3594 400.242 89.3594 398.977V398.758C89.3594 397.909 89.5234 397.151 89.8516 396.484C90.1797 395.812 90.6432 395.297 91.2422 394.938C91.8464 394.573 92.5339 394.391 93.3047 394.391C94.4609 394.391 95.3698 394.755 96.0312 395.484C96.6979 396.214 97.0312 397.247 97.0312 398.586V399.508H91.6484C91.7214 400.06 91.9401 400.503 92.3047 400.836C92.6745 401.169 93.1406 401.336 93.7031 401.336C94.5729 401.336 95.2526 401.021 95.7422 400.391L96.8516 401.633C96.513 402.112 96.0547 402.487 95.4766 402.758C94.8984 403.023 94.2578 403.156 93.5547 403.156ZM93.2969 396.219C92.849 396.219 92.4844 396.37 92.2031 396.672C91.9271 396.974 91.75 397.406 91.6719 397.969H94.8125V397.789C94.8021 397.289 94.6667 396.904 94.4062 396.633C94.1458 396.357 93.776 396.219 93.2969 396.219ZM102.175 400.242L103.745 394.547H106.105L103.253 403H101.097L98.2453 394.547H100.605L102.175 400.242ZM144.606 391.625L147.528 399.875L150.434 391.625H153.512V403H151.161V399.891L151.395 394.523L148.325 403H146.716L143.653 394.531L143.887 399.891V403H141.544V391.625H144.606ZM161.109 403C161.005 402.797 160.93 402.544 160.883 402.242C160.336 402.852 159.625 403.156 158.75 403.156C157.922 403.156 157.234 402.917 156.688 402.438C156.146 401.958 155.875 401.354 155.875 400.625C155.875 399.729 156.206 399.042 156.867 398.562C157.534 398.083 158.495 397.841 159.75 397.836H160.789V397.352C160.789 396.961 160.688 396.648 160.484 396.414C160.286 396.18 159.971 396.062 159.539 396.062C159.159 396.062 158.859 396.154 158.641 396.336C158.427 396.518 158.32 396.768 158.32 397.086H156.062C156.062 396.596 156.214 396.143 156.516 395.727C156.818 395.31 157.245 394.984 157.797 394.75C158.349 394.51 158.969 394.391 159.656 394.391C160.698 394.391 161.523 394.654 162.133 395.18C162.747 395.701 163.055 396.435 163.055 397.383V401.047C163.06 401.849 163.172 402.456 163.391 402.867V403H161.109ZM159.242 401.43C159.576 401.43 159.883 401.357 160.164 401.211C160.445 401.06 160.654 400.859 160.789 400.609V399.156H159.945C158.815 399.156 158.214 399.547 158.141 400.328L158.133 400.461C158.133 400.742 158.232 400.974 158.43 401.156C158.628 401.339 158.898 401.43 159.242 401.43ZM170.339 396.664C170.032 396.622 169.761 396.602 169.527 396.602C168.672 396.602 168.112 396.891 167.847 397.469V403H165.589V394.547H167.722L167.784 395.555C168.237 394.779 168.865 394.391 169.667 394.391C169.917 394.391 170.152 394.424 170.37 394.492L170.339 396.664ZM212.294 400.656H208.184L207.403 403H204.911L209.145 391.625H211.317L215.575 403H213.083L212.294 400.656ZM208.817 398.758H211.661L210.231 394.5L208.817 398.758ZM224.906 398.852C224.906 400.206 224.617 401.263 224.039 402.023C223.461 402.779 222.654 403.156 221.617 403.156C220.701 403.156 219.969 402.805 219.422 402.102L219.32 403H217.289V391H219.547V395.305C220.068 394.695 220.753 394.391 221.602 394.391C222.633 394.391 223.44 394.771 224.023 395.531C224.612 396.286 224.906 397.352 224.906 398.727V398.852ZM222.648 398.688C222.648 397.833 222.513 397.211 222.242 396.82C221.971 396.424 221.568 396.227 221.031 396.227C220.312 396.227 219.818 396.521 219.547 397.109V400.445C219.823 401.039 220.323 401.336 221.047 401.336C221.776 401.336 222.255 400.977 222.484 400.258C222.594 399.914 222.648 399.391 222.648 398.688ZM231.855 396.664C231.547 396.622 231.277 396.602 231.042 396.602C230.188 396.602 229.628 396.891 229.363 397.469V403H227.105V394.547H229.238L229.3 395.555C229.753 394.779 230.381 394.391 231.183 394.391C231.433 394.391 231.667 394.424 231.886 394.492L231.855 396.664ZM270.45 391.625L273.372 399.875L276.278 391.625H279.356V403H277.005V399.891L277.239 394.523L274.169 403H272.559L269.497 394.531L269.731 399.891V403H267.387V391.625H270.45ZM286.953 403C286.849 402.797 286.773 402.544 286.727 402.242C286.18 402.852 285.469 403.156 284.594 403.156C283.766 403.156 283.078 402.917 282.531 402.438C281.99 401.958 281.719 401.354 281.719 400.625C281.719 399.729 282.049 399.042 282.711 398.562C283.378 398.083 284.339 397.841 285.594 397.836H286.633V397.352C286.633 396.961 286.531 396.648 286.328 396.414C286.13 396.18 285.815 396.062 285.383 396.062C285.003 396.062 284.703 396.154 284.484 396.336C284.271 396.518 284.164 396.768 284.164 397.086H281.906C281.906 396.596 282.057 396.143 282.359 395.727C282.661 395.31 283.089 394.984 283.641 394.75C284.193 394.51 284.812 394.391 285.5 394.391C286.542 394.391 287.367 394.654 287.977 395.18C288.591 395.701 288.898 396.435 288.898 397.383V401.047C288.904 401.849 289.016 402.456 289.234 402.867V403H286.953ZM285.086 401.43C285.419 401.43 285.727 401.357 286.008 401.211C286.289 401.06 286.497 400.859 286.633 400.609V399.156H285.789C284.659 399.156 284.057 399.547 283.984 400.328L283.977 400.461C283.977 400.742 284.076 400.974 284.273 401.156C284.471 401.339 284.742 401.43 285.086 401.43ZM293.816 403H291.55V394.547H293.816V403ZM291.417 392.359C291.417 392.021 291.529 391.742 291.753 391.523C291.982 391.305 292.292 391.195 292.683 391.195C293.068 391.195 293.376 391.305 293.605 391.523C293.834 391.742 293.948 392.021 293.948 392.359C293.948 392.703 293.831 392.984 293.597 393.203C293.368 393.422 293.063 393.531 292.683 393.531C292.303 393.531 291.995 393.422 291.761 393.203C291.532 392.984 291.417 392.703 291.417 392.359ZM334.708 391.625H337.052V399.5C337.052 400.224 336.89 400.865 336.567 401.422C336.249 401.974 335.799 402.401 335.216 402.703C334.632 403.005 333.973 403.156 333.239 403.156C332.036 403.156 331.098 402.852 330.427 402.242C329.755 401.628 329.419 400.76 329.419 399.641H331.778C331.778 400.198 331.895 400.609 332.13 400.875C332.364 401.141 332.734 401.273 333.239 401.273C333.687 401.273 334.044 401.12 334.309 400.812C334.575 400.505 334.708 400.068 334.708 399.5V391.625ZM344.773 402.141C344.216 402.818 343.445 403.156 342.461 403.156C341.555 403.156 340.862 402.896 340.383 402.375C339.909 401.854 339.667 401.091 339.656 400.086V394.547H341.914V400.008C341.914 400.888 342.315 401.328 343.117 401.328C343.883 401.328 344.409 401.062 344.695 400.531V394.547H346.961V403H344.836L344.773 402.141ZM351.542 394.547L351.612 395.523C352.217 394.768 353.027 394.391 354.042 394.391C354.938 394.391 355.605 394.654 356.042 395.18C356.48 395.706 356.704 396.492 356.714 397.539V403H354.456V397.594C354.456 397.115 354.352 396.768 354.144 396.555C353.935 396.336 353.589 396.227 353.105 396.227C352.469 396.227 351.993 396.497 351.675 397.039V403H349.417V394.547H351.542ZM397.458 391.625H399.802V399.5C399.802 400.224 399.64 400.865 399.317 401.422C398.999 401.974 398.549 402.401 397.966 402.703C397.382 403.005 396.723 403.156 395.989 403.156C394.786 403.156 393.848 402.852 393.177 402.242C392.505 401.628 392.169 400.76 392.169 399.641H394.528C394.528 400.198 394.645 400.609 394.88 400.875C395.114 401.141 395.484 401.273 395.989 401.273C396.437 401.273 396.794 401.12 397.059 400.812C397.325 400.505 397.458 400.068 397.458 399.5V391.625ZM407.523 402.141C406.966 402.818 406.195 403.156 405.211 403.156C404.305 403.156 403.612 402.896 403.133 402.375C402.659 401.854 402.417 401.091 402.406 400.086V394.547H404.664V400.008C404.664 400.888 405.065 401.328 405.867 401.328C406.633 401.328 407.159 401.062 407.445 400.531V394.547H409.711V403H407.586L407.523 402.141ZM414.597 403H412.331V391H414.597V403Z" fill="#898484"/>
<path d="M51.5 368H440" stroke="#4F4F4F"/>
<path d="M67 323H429" stroke="#E5E5E5"/>
<path d="M65 278H427" stroke="#E5E5E5"/>
<path d="M65 233H427" stroke="#E5E5E5"/>
<path d="M65 185H427" stroke="#E5E5E5"/>
<path d="M65 140H427" stroke="#E5E5E5"/>
<path d="M63 94H425" stroke="#E5E5E5"/>
<path d="M41.4277 327H35.5801V325.84L38.3398 322.898C38.7188 322.484 38.998 322.123 39.1777 321.814C39.3613 321.506 39.4531 321.213 39.4531 320.936C39.4531 320.557 39.3574 320.26 39.166 320.045C38.9746 319.826 38.7012 319.717 38.3457 319.717C37.9629 319.717 37.6602 319.85 37.4375 320.115C37.2188 320.377 37.1094 320.723 37.1094 321.152H35.4102C35.4102 320.633 35.5332 320.158 35.7793 319.729C36.0293 319.299 36.3809 318.963 36.834 318.721C37.2871 318.475 37.8008 318.352 38.375 318.352C39.2539 318.352 39.9355 318.562 40.4199 318.984C40.9082 319.406 41.1523 320.002 41.1523 320.771C41.1523 321.193 41.043 321.623 40.8242 322.061C40.6055 322.498 40.2305 323.008 39.6992 323.59L37.7598 325.635H41.4277V327ZM48.8129 323.473C48.8129 324.652 48.5687 325.555 48.0805 326.18C47.5922 326.805 46.8773 327.117 45.9359 327.117C45.0062 327.117 44.2953 326.811 43.8031 326.197C43.3109 325.584 43.059 324.705 43.0473 323.561V321.99C43.0473 320.799 43.2934 319.895 43.7855 319.277C44.2816 318.66 44.9945 318.352 45.9242 318.352C46.8539 318.352 47.5648 318.658 48.057 319.271C48.5492 319.881 48.8012 320.758 48.8129 321.902V323.473ZM47.1195 321.75C47.1195 321.043 47.0219 320.529 46.8266 320.209C46.6352 319.885 46.3344 319.723 45.9242 319.723C45.5258 319.723 45.2309 319.877 45.0395 320.186C44.852 320.49 44.7523 320.969 44.7406 321.621V323.695C44.7406 324.391 44.8344 324.908 45.0219 325.248C45.2133 325.584 45.518 325.752 45.9359 325.752C46.35 325.752 46.6488 325.59 46.8324 325.266C47.016 324.941 47.1117 324.445 47.1195 323.777V321.75Z" fill="#4F4F4F"/>
<path d="M40.5898 278.789H41.5566V280.154H40.5898V282H38.8965V280.154H35.3984L35.3223 279.088L38.8789 273.469H40.5898V278.789ZM37.0098 278.789H38.8965V275.777L38.7852 275.971L37.0098 278.789ZM48.8129 278.473C48.8129 279.652 48.5687 280.555 48.0805 281.18C47.5922 281.805 46.8773 282.117 45.9359 282.117C45.0062 282.117 44.2953 281.811 43.8031 281.197C43.3109 280.584 43.059 279.705 43.0473 278.561V276.99C43.0473 275.799 43.2934 274.895 43.7855 274.277C44.2816 273.66 44.9945 273.352 45.9242 273.352C46.8539 273.352 47.5648 273.658 48.057 274.271C48.5492 274.881 48.8012 275.758 48.8129 276.902V278.473ZM47.1195 276.75C47.1195 276.043 47.0219 275.529 46.8266 275.209C46.6352 274.885 46.3344 274.723 45.9242 274.723C45.5258 274.723 45.2309 274.877 45.0395 275.186C44.852 275.49 44.7523 275.969 44.7406 276.621V278.695C44.7406 279.391 44.8344 279.908 45.0219 280.248C45.2133 280.584 45.518 280.752 45.9359 280.752C46.35 280.752 46.6488 280.59 46.8324 280.266C47.016 279.941 47.1117 279.445 47.1195 278.777V276.75Z" fill="#4F4F4F"/>
<path d="M40.1738 228.381V229.775H40.0098C39.2441 229.787 38.627 229.986 38.1582 230.373C37.6934 230.76 37.4141 231.297 37.3203 231.984C37.7734 231.523 38.3457 231.293 39.0371 231.293C39.7793 231.293 40.3691 231.559 40.8066 232.09C41.2441 232.621 41.4629 233.32 41.4629 234.188C41.4629 234.742 41.3418 235.244 41.0996 235.693C40.8613 236.143 40.5215 236.492 40.0801 236.742C39.6426 236.992 39.1465 237.117 38.5918 237.117C37.6934 237.117 36.9668 236.805 36.4121 236.18C35.8613 235.555 35.5859 234.721 35.5859 233.678V233.068C35.5859 232.143 35.7598 231.326 36.1074 230.619C36.459 229.908 36.9609 229.359 37.6133 228.973C38.2695 228.582 39.0293 228.385 39.8926 228.381H40.1738ZM38.5215 232.652C38.248 232.652 38 232.725 37.7773 232.869C37.5547 233.01 37.3906 233.197 37.2852 233.432V233.947C37.2852 234.514 37.3965 234.957 37.6191 235.277C37.8418 235.594 38.1543 235.752 38.5566 235.752C38.9199 235.752 39.2129 235.609 39.4355 235.324C39.6621 235.035 39.7754 234.662 39.7754 234.205C39.7754 233.74 39.6621 233.365 39.4355 233.08C39.209 232.795 38.9043 232.652 38.5215 232.652ZM48.8129 233.473C48.8129 234.652 48.5687 235.555 48.0805 236.18C47.5922 236.805 46.8773 237.117 45.9359 237.117C45.0062 237.117 44.2953 236.811 43.8031 236.197C43.3109 235.584 43.059 234.705 43.0473 233.561V231.99C43.0473 230.799 43.2934 229.895 43.7855 229.277C44.2816 228.66 44.9945 228.352 45.9242 228.352C46.8539 228.352 47.5648 228.658 48.057 229.271C48.5492 229.881 48.8012 230.758 48.8129 231.902V233.473ZM47.1195 231.75C47.1195 231.043 47.0219 230.529 46.8266 230.209C46.6352 229.885 46.3344 229.723 45.9242 229.723C45.5258 229.723 45.2309 229.877 45.0395 230.186C44.852 230.49 44.7523 230.969 44.7406 231.621V233.695C44.7406 234.391 44.8344 234.908 45.0219 235.248C45.2133 235.584 45.518 235.752 45.9359 235.752C46.35 235.752 46.6488 235.59 46.8324 235.266C47.016 234.941 47.1117 234.445 47.1195 233.777V231.75Z" fill="#4F4F4F"/>
<path d="M41.1406 185.736C41.1406 186.15 41.0371 186.518 40.8301 186.838C40.623 187.158 40.3379 187.414 39.9746 187.605C40.3887 187.805 40.7168 188.08 40.959 188.432C41.2012 188.779 41.3223 189.189 41.3223 189.662C41.3223 190.42 41.0645 191.02 40.5488 191.461C40.0332 191.898 39.332 192.117 38.4453 192.117C37.5586 192.117 36.8555 191.896 36.3359 191.455C35.8164 191.014 35.5566 190.416 35.5566 189.662C35.5566 189.189 35.6777 188.777 35.9199 188.426C36.1621 188.074 36.4883 187.801 36.8984 187.605C36.5352 187.414 36.25 187.158 36.043 186.838C35.8398 186.518 35.7383 186.15 35.7383 185.736C35.7383 185.01 35.9805 184.432 36.4648 184.002C36.9492 183.568 37.6074 183.352 38.4395 183.352C39.2676 183.352 39.9238 183.566 40.4082 183.996C40.8965 184.422 41.1406 185.002 41.1406 185.736ZM39.623 189.539C39.623 189.168 39.5156 188.871 39.3008 188.648C39.0859 188.426 38.7969 188.314 38.4336 188.314C38.0742 188.314 37.7871 188.426 37.5723 188.648C37.3574 188.867 37.25 189.164 37.25 189.539C37.25 189.902 37.3555 190.195 37.5664 190.418C37.7773 190.641 38.0703 190.752 38.4453 190.752C38.8125 190.752 39.0996 190.645 39.3066 190.43C39.5176 190.215 39.623 189.918 39.623 189.539ZM39.4473 185.818C39.4473 185.486 39.3594 185.221 39.1836 185.021C39.0078 184.818 38.7598 184.717 38.4395 184.717C38.123 184.717 37.877 184.814 37.7012 185.01C37.5254 185.205 37.4375 185.475 37.4375 185.818C37.4375 186.158 37.5254 186.432 37.7012 186.639C37.877 186.846 38.125 186.949 38.4453 186.949C38.7656 186.949 39.0117 186.846 39.1836 186.639C39.3594 186.432 39.4473 186.158 39.4473 185.818ZM48.8129 188.473C48.8129 189.652 48.5687 190.555 48.0805 191.18C47.5922 191.805 46.8773 192.117 45.9359 192.117C45.0062 192.117 44.2953 191.811 43.8031 191.197C43.3109 190.584 43.059 189.705 43.0473 188.561V186.99C43.0473 185.799 43.2934 184.895 43.7855 184.277C44.2816 183.66 44.9945 183.352 45.9242 183.352C46.8539 183.352 47.5648 183.658 48.057 184.271C48.5492 184.881 48.8012 185.758 48.8129 186.902V188.473ZM47.1195 186.75C47.1195 186.043 47.0219 185.529 46.8266 185.209C46.6352 184.885 46.3344 184.723 45.9242 184.723C45.5258 184.723 45.2309 184.877 45.0395 185.186C44.852 185.49 44.7523 185.969 44.7406 186.621V188.695C44.7406 189.391 44.8344 189.908 45.0219 190.248C45.2133 190.584 45.518 190.752 45.9359 190.752C46.35 190.752 46.6488 190.59 46.8324 190.266C47.016 189.941 47.1117 189.445 47.1195 188.777V186.75Z" fill="#4F4F4F"/>
<path d="M35.6934 143H34V136.473L31.9785 137.1V135.723L35.5117 134.457H35.6934V143ZM44.8129 139.473C44.8129 140.652 44.5687 141.555 44.0805 142.18C43.5922 142.805 42.8773 143.117 41.9359 143.117C41.0062 143.117 40.2953 142.811 39.8031 142.197C39.3109 141.584 39.059 140.705 39.0473 139.561V137.99C39.0473 136.799 39.2934 135.895 39.7855 135.277C40.2816 134.66 40.9945 134.352 41.9242 134.352C42.8539 134.352 43.5648 134.658 44.057 135.271C44.5492 135.881 44.8012 136.758 44.8129 137.902V139.473ZM43.1195 137.75C43.1195 137.043 43.0219 136.529 42.8266 136.209C42.6352 135.885 42.3344 135.723 41.9242 135.723C41.5258 135.723 41.2309 135.877 41.0395 136.186C40.852 136.49 40.7523 136.969 40.7406 137.621V139.695C40.7406 140.391 40.8344 140.908 41.0219 141.248C41.2133 141.584 41.518 141.752 41.9359 141.752C42.35 141.752 42.6488 141.59 42.8324 141.266C43.016 140.941 43.1117 140.445 43.1195 139.777V137.75ZM52.3035 139.473C52.3035 140.652 52.0594 141.555 51.5711 142.18C51.0828 142.805 50.368 143.117 49.4266 143.117C48.4969 143.117 47.7859 142.811 47.2937 142.197C46.8016 141.584 46.5496 140.705 46.5379 139.561V137.99C46.5379 136.799 46.784 135.895 47.2762 135.277C47.7723 134.66 48.4852 134.352 49.4148 134.352C50.3445 134.352 51.0555 134.658 51.5477 135.271C52.0398 135.881 52.2918 136.758 52.3035 137.902V139.473ZM50.6102 137.75C50.6102 137.043 50.5125 136.529 50.3172 136.209C50.1258 135.885 49.825 135.723 49.4148 135.723C49.0164 135.723 48.7215 135.877 48.5301 136.186C48.3426 136.49 48.243 136.969 48.2312 137.621V139.695C48.2312 140.391 48.325 140.908 48.5125 141.248C48.7039 141.584 49.0086 141.752 49.4266 141.752C49.8406 141.752 50.1395 141.59 50.323 141.266C50.5066 140.941 50.6023 140.445 50.6102 139.777V137.75Z" fill="#4F4F4F"/>
<path d="M35.6934 98H34V91.4727L31.9785 92.0996V90.7227L35.5117 89.457H35.6934V98ZM43.184 98H41.4906V91.4727L39.4691 92.0996V90.7227L43.0023 89.457H43.184V98ZM52.3035 94.4727C52.3035 95.6523 52.0594 96.5547 51.5711 97.1797C51.0828 97.8047 50.368 98.1172 49.4266 98.1172C48.4969 98.1172 47.7859 97.8105 47.2937 97.1973C46.8016 96.584 46.5496 95.7051 46.5379 94.5605V92.9902C46.5379 91.7988 46.784 90.8945 47.2762 90.2773C47.7723 89.6602 48.4852 89.3516 49.4148 89.3516C50.3445 89.3516 51.0555 89.6582 51.5477 90.2715C52.0398 90.8809 52.2918 91.7578 52.3035 92.9023V94.4727ZM50.6102 92.75C50.6102 92.043 50.5125 91.5293 50.3172 91.209C50.1258 90.8848 49.825 90.7227 49.4148 90.7227C49.0164 90.7227 48.7215 90.877 48.5301 91.1855C48.3426 91.4902 48.243 91.9688 48.2312 92.6211V94.6953C48.2312 95.3906 48.325 95.9082 48.5125 96.248C48.7039 96.584 49.0086 96.752 49.4266 96.752C49.8406 96.752 50.1395 96.5898 50.323 96.2656C50.5066 95.9414 50.6023 95.4453 50.6102 94.7773V92.75Z" fill="#4F4F4F"/>
<rect x="90" y="261" width="6" height="107" rx="3" fill="#E83A30"/>
<rect x="152" y="132" width="6" height="236" rx="3" fill="#E83A30"/>
<rect x="214" y="166" width="6" height="202" rx="3" fill="#E83A30"/>
<rect x="276" y="222" width="6" height="146" rx="3" fill="#E83A30"/>
<rect x="338" y="113" width="6" height="255" rx="3" fill="#E83A30"/>
<rect x="400" y="185" width="6" height="183" rx="3" fill="#E83A30"/>
<defs>
<filter id="filter0_d" x="0" y="0" width="496" height="454" filterUnits="userSpaceOnUse" color-interpolation-filters="sRGB">
<feFlood flood-opacity="0" result="BackgroundImageFix"/>
<feColorMatrix in="SourceAlpha" type="matrix" values="0 0 0 0 0 0 0 0 0 0 0 0 0 0 0 0 0 0 127 0"/>
<feOffset dy="6"/>
<feGaussianBlur stdDeviation="10"/>
<feColorMatrix type="matrix" values="0 0 0 0 0 0 0 0 0 0 0 0 0 0 0 0 0 0 0.25 0"/>
<feBlend mode="normal" in2="BackgroundImageFix" result="effect1_dropShadow"/>
<feBlend mode="normal" in="SourceGraphic" in2="effect1_dropShadow" result="shape"/>
</filter>
</defs>
</svg>
