<svg width="224" height="89" viewBox="0 0 224 89" fill="none" xmlns="http://www.w3.org/2000/svg">
<path d="M2.68352 1.29688L16.1376 32.2256L29.6366 1.29688H31.4111V34H30.1982V3.09375L16.6318 34H15.6659L2.16692 3.25098V34H0.954025V1.29688H2.68352ZM81.2627 20.0967C81.2627 22.9268 80.7535 25.4349 79.7353 27.6211C78.7321 29.7923 77.2946 31.4769 75.4228 32.6748C73.5511 33.8577 71.3948 34.4492 68.9541 34.4492C65.2705 34.4492 62.2907 33.139 60.0146 30.5186C57.7386 27.8981 56.6005 24.3643 56.6005 19.917V15.2002C56.6005 12.3851 57.1022 9.88444 58.1054 7.69824C59.1237 5.51204 60.5686 3.82747 62.4404 2.64453C64.3271 1.44661 66.4834 0.847656 68.9091 0.847656C71.3499 0.847656 73.5061 1.44661 75.3779 2.64453C77.2646 3.82747 78.7171 5.51953 79.7353 7.7207C80.7535 9.9069 81.2627 12.4001 81.2627 15.2002V20.0967ZM80.0498 15.1553C80.0498 11.2021 79.0465 8.03516 77.04 5.6543C75.0335 3.25846 72.3232 2.06055 68.9091 2.06055C65.54 2.06055 62.8522 3.25098 60.8457 5.63184C58.8392 7.99772 57.8359 11.2246 57.8359 15.3125V20.0967C57.8359 22.7021 58.2851 25.0081 59.1836 27.0146C60.097 29.0062 61.3922 30.541 63.0693 31.6191C64.7464 32.6973 66.708 33.2363 68.9541 33.2363C72.3681 33.2363 75.0709 32.0459 77.0625 29.665C79.054 27.2842 80.0498 24.0348 80.0498 19.917V15.1553ZM118.896 20.0068H107.553V34H106.34V1.29688H116.762C120.041 1.29688 122.646 2.1429 124.578 3.83496C126.525 5.52702 127.498 7.82552 127.498 10.7305C127.498 12.9616 126.802 14.9157 125.409 16.5928C124.032 18.2549 122.272 19.2881 120.131 19.6924L128.868 33.6855V34H127.588L118.896 20.0068ZM107.553 18.7939H117.862C120.378 18.7939 122.407 18.0303 123.949 16.5029C125.507 14.9756 126.285 13.0514 126.285 10.7305C126.285 8.1849 125.424 6.17839 123.702 4.71094C121.995 3.24349 119.652 2.50977 116.672 2.50977H107.553V18.7939ZM171.487 24.2295H155.473L151.834 34H150.509L162.75 1.29688H164.232L176.474 34H175.148L171.487 24.2295ZM155.922 23.0166H171.038L163.491 2.75684L155.922 23.0166ZM223.024 34H221.811L200.697 3.36328V34H199.462V1.29688H200.697L221.811 31.8662V1.29688H223.024V34ZM27.9296 84.4961C27.106 85.6341 25.6611 86.5775 23.5947 87.3262C21.5282 88.0749 19.2522 88.4492 16.7665 88.4492C14.3407 88.4492 12.177 87.8577 10.2753 86.6748C8.37362 85.4919 6.88371 83.8223 5.80559 81.666C4.74244 79.5098 4.19589 77.069 4.16594 74.3438V68.7285C4.16594 66.0482 4.68254 63.6449 5.71574 61.5186C6.74895 59.3923 8.20142 57.7526 10.0732 56.5996C11.9449 55.4316 14.0488 54.8477 16.3847 54.8477C19.634 54.8477 22.2769 55.6787 24.3134 57.3408C26.3648 59.0029 27.5553 61.2715 27.8847 64.1465H26.6718C26.2675 61.541 25.1819 59.542 23.415 58.1494C21.648 56.7568 19.3046 56.0605 16.3847 56.0605C13.0904 56.0605 10.4325 57.236 8.41106 59.5869C6.38957 61.9378 5.37883 65.0299 5.37883 68.8633V74.0742C5.37883 76.6348 5.85051 78.9183 6.79387 80.9248C7.7522 82.9313 9.09237 84.4886 10.8144 85.5967C12.5514 86.6898 14.5354 87.2363 16.7665 87.2363C18.9527 87.2363 20.9817 86.9144 22.8534 86.2705C24.7252 85.6266 26.0129 84.848 26.7167 83.9346V74.4111H16.7216V73.1758H27.9296V84.4961ZM71.4023 78.2295H55.3877L51.749 88H50.4238L62.665 55.2969H64.1474L76.3886 88H75.0634L71.4023 78.2295ZM55.8369 77.0166H70.9531L63.4062 56.7568L55.8369 77.0166ZM122.938 88H121.726L100.612 57.3633V88H99.377V55.2969H100.612L121.726 85.8662V55.2969H122.938V88ZM149.655 88V55.2969H158.707C161.238 55.2969 163.529 55.8958 165.58 57.0938C167.632 58.2917 169.241 59.9762 170.409 62.1475C171.577 64.3037 172.176 66.722 172.206 69.4023V73.6475C172.206 76.3727 171.63 78.8285 170.477 81.0146C169.339 83.2008 167.744 84.9079 165.692 86.1357C163.641 87.3636 161.35 87.985 158.819 88H149.655ZM150.868 56.5098V86.7871H158.707C160.998 86.7871 163.079 86.2331 164.951 85.125C166.838 84.002 168.313 82.4447 169.376 80.4531C170.439 78.4466 170.978 76.223 170.993 73.7822V69.582C170.993 67.1413 170.469 64.9251 169.421 62.9336C168.388 60.9421 166.935 59.3848 165.064 58.2617C163.207 57.1237 161.148 56.5397 158.887 56.5098H150.868ZM220.62 74.0967C220.62 76.9268 220.111 79.4349 219.093 81.6211C218.09 83.7923 216.652 85.4769 214.78 86.6748C212.909 87.8577 210.752 88.4492 208.312 88.4492C204.628 88.4492 201.648 87.139 199.372 84.5186C197.096 81.8981 195.958 78.3643 195.958 73.917V69.2002C195.958 66.3851 196.46 63.8844 197.463 61.6982C198.481 59.512 199.926 57.8275 201.798 56.6445C203.685 55.4466 205.841 54.8477 208.267 54.8477C210.707 54.8477 212.864 55.4466 214.735 56.6445C216.622 57.8275 218.075 59.5195 219.093 61.7207C220.111 63.9069 220.62 66.4001 220.62 69.2002V74.0967ZM219.407 69.1553C219.407 65.2021 218.404 62.0352 216.398 59.6543C214.391 57.2585 211.681 56.0605 208.267 56.0605C204.898 56.0605 202.21 57.251 200.203 59.6318C198.197 61.9977 197.193 65.2246 197.193 69.3125V74.0967C197.193 76.7021 197.643 79.0081 198.541 81.0146C199.455 83.0062 200.75 84.541 202.427 85.6191C204.104 86.6973 206.066 87.2363 208.312 87.2363C211.726 87.2363 214.428 86.0459 216.42 83.665C218.412 81.2842 219.407 78.0348 219.407 73.917V69.1553Z" fill="black"/>
</svg>
