<svg width="156" height="74" viewBox="0 0 156 74" fill="none" xmlns="http://www.w3.org/2000/svg">
<path d="M2.13508 0.984375L13.2493 26.5342L24.4007 0.984375H25.8665V28H24.8646V2.46875L13.6575 28H12.8597L1.70832 2.59863V28H0.706367V0.984375H2.13508ZM59.8283 16.5146C59.8283 18.8525 59.4077 20.9245 58.5666 22.7305C57.7378 24.5241 56.5503 25.9157 55.0041 26.9053C53.4578 27.8825 51.6766 28.3711 49.6603 28.3711C46.6173 28.3711 44.1558 27.2887 42.2755 25.124C40.3953 22.9593 39.4552 20.04 39.4552 16.3662V12.4697C39.4552 10.1442 39.8696 8.07845 40.6984 6.27246C41.5395 4.46647 42.7332 3.07487 44.2794 2.09766C45.838 1.10807 47.6193 0.613281 49.6232 0.613281C51.6395 0.613281 53.4207 1.10807 54.9669 2.09766C56.5255 3.07487 57.7254 4.47266 58.5666 6.29102C59.4077 8.09701 59.8283 10.1566 59.8283 12.4697V16.5146ZM58.8263 12.4326C58.8263 9.16699 57.9975 6.55078 56.34 4.58398C54.6824 2.60482 52.4435 1.61523 49.6232 1.61523C46.84 1.61523 44.6196 2.59863 42.9621 4.56543C41.3045 6.51986 40.4757 9.18555 40.4757 12.5625V16.5146C40.4757 18.667 40.8468 20.5719 41.589 22.2295C42.3436 23.8747 43.4136 25.1426 44.799 26.0332C46.1844 26.9238 47.8048 27.3691 49.6603 27.3691C52.4806 27.3691 54.7134 26.3857 56.3586 24.4189C58.0037 22.4521 58.8263 19.7679 58.8263 16.3662V12.4326ZM83.6963 16.4404H74.3262V28H73.3242V0.984375H81.9336C84.6426 0.984375 86.7949 1.68327 88.3906 3.08105C89.9987 4.47884 90.8027 6.3776 90.8027 8.77734C90.8027 10.6204 90.2275 12.2347 89.0771 13.6201C87.9391 14.9932 86.4857 15.8467 84.7168 16.1807L91.9346 27.7402V28H90.877L83.6963 16.4404ZM74.3262 15.4385H82.8428C84.9209 15.4385 86.597 14.8076 87.8711 13.5459C89.1576 12.2842 89.8008 10.6947 89.8008 8.77734C89.8008 6.67448 89.0895 5.01693 87.667 3.80469C86.2568 2.59245 84.321 1.98633 81.8594 1.98633H74.3262V15.4385ZM119.922 19.9287H106.692L103.686 28H102.592L112.704 0.984375H113.929L124.041 28H122.946L119.922 19.9287ZM107.063 18.9268H119.551L113.316 2.19043L107.063 18.9268ZM155.275 28H154.273L136.832 2.69141V28H135.811V0.984375H136.832L154.273 26.2373V0.984375H155.275V28ZM22.9905 70.1055C22.3102 71.0456 21.1165 71.8249 19.4095 72.4434C17.7025 73.0618 15.8223 73.3711 13.7689 73.3711C11.765 73.3711 9.97753 72.8825 8.40656 71.9053C6.8356 70.9281 5.6048 69.5488 4.71418 67.7676C3.83592 65.9863 3.38443 63.9701 3.35969 61.7188V57.0801C3.35969 54.8659 3.78645 52.8805 4.63996 51.124C5.49348 49.3675 6.69335 48.013 8.23957 47.0605C9.78579 46.0957 11.5238 45.6133 13.4534 45.6133C16.1377 45.6133 18.321 46.2998 20.0032 47.6729C21.6979 49.0459 22.6813 50.9199 22.9534 53.2949H21.9515C21.6175 51.1426 20.7207 49.4912 19.2611 48.3408C17.8014 47.1904 15.8655 46.6152 13.4534 46.6152C10.7321 46.6152 8.53645 47.5863 6.86652 49.5283C5.1966 51.4704 4.36164 54.0247 4.36164 57.1914V61.4961C4.36164 63.6113 4.75129 65.4977 5.53059 67.1553C6.32225 68.8128 7.42935 70.0993 8.85188 71.0146C10.2868 71.9176 11.9258 72.3691 13.7689 72.3691C15.5749 72.3691 17.251 72.1032 18.7972 71.5713C20.3434 71.0394 21.4072 70.3962 21.9886 69.6416V61.7744H13.7318V60.7539H22.9905V70.1055ZM51.6828 64.9287H38.4533L35.4474 73H34.3527L44.465 45.9844H45.6896L55.8019 73H54.7072L51.6828 64.9287ZM38.8244 63.9268H51.3117L45.0773 47.1904L38.8244 63.9268ZM87.0361 73H86.0342L68.5928 47.6914V73H67.5723V45.9844H68.5928L86.0342 71.2373V45.9844H87.0361V73ZM101.887 73V45.9844H109.364C111.455 45.9844 113.347 46.4792 115.042 47.4688C116.737 48.4583 118.066 49.8499 119.031 51.6436C119.996 53.4248 120.491 55.4225 120.515 57.6367V61.1436C120.515 63.3949 120.039 65.4235 119.087 67.2295C118.147 69.0355 116.829 70.4456 115.135 71.46C113.44 72.4743 111.547 72.9876 109.457 73H101.887ZM102.889 46.9863V71.998H109.364C111.257 71.998 112.976 71.5404 114.522 70.625C116.081 69.6973 117.299 68.4108 118.178 66.7656C119.056 65.1081 119.501 63.2712 119.514 61.2549V57.7852C119.514 55.7689 119.081 53.9382 118.215 52.293C117.361 50.6478 116.161 49.3613 114.615 48.4336C113.081 47.4935 111.38 47.0111 109.513 46.9863H102.889ZM153.29 61.5146C153.29 63.8525 152.869 65.9245 152.028 67.7305C151.199 69.5241 150.012 70.9157 148.466 71.9053C146.919 72.8825 145.138 73.3711 143.122 73.3711C140.079 73.3711 137.617 72.2887 135.737 70.124C133.857 67.9593 132.917 65.04 132.917 61.3662V57.4697C132.917 55.1442 133.331 53.0785 134.16 51.2725C135.001 49.4665 136.195 48.0749 137.741 47.0977C139.299 46.1081 141.081 45.6133 143.085 45.6133C145.101 45.6133 146.882 46.1081 148.428 47.0977C149.987 48.0749 151.187 49.4727 152.028 51.291C152.869 53.097 153.29 55.1566 153.29 57.4697V61.5146ZM152.288 57.4326C152.288 54.167 151.459 51.5508 149.801 49.584C148.144 47.6048 145.905 46.6152 143.085 46.6152C140.301 46.6152 138.081 47.5986 136.424 49.5654C134.766 51.5199 133.937 54.1855 133.937 57.5625V61.5146C133.937 63.667 134.308 65.5719 135.05 67.2295C135.805 68.8747 136.875 70.1426 138.26 71.0332C139.646 71.9238 141.266 72.3691 143.122 72.3691C145.942 72.3691 148.175 71.3857 149.82 69.4189C151.465 67.4521 152.288 64.7679 152.288 61.3662V57.4326Z" fill="black"/>
</svg>
