<svg width="240" height="88" viewBox="0 0 240 88" fill="none" xmlns="http://www.w3.org/2000/svg">
<path d="M44.8824 40.4554C17.8275 36.8451 8.18216 46.8973 0 55.1089L0.447928 82.4338H240V20.0679C225.487 8.88308 224.502 3.43224 207.57 0.600647C179.733 -4.05475 177.021 19.4308 146.114 33.8011C115.207 48.1715 76.1057 44.6219 44.8824 40.4554Z" fill="#E83A30"/>
<path d="M44.8824 49.4967C22.5111 44.2756 8.18216 54.5511 0 60.9941V82.4339H240V41.7762C240 36.0631 239.59 42.6328 211.285 29.4287C190.103 19.5475 177.021 33.0003 146.114 44.2756C115.207 55.5509 91.551 60.3883 44.8824 49.4967Z" fill="#FF805D"/>
<path d="M33.4121 58.0504C6.35724 55.9637 8.18216 67.4608 0 72.2069V88H240V58.0504C237.372 56.5093 223.188 67.6599 209.069 65.6959C191.421 63.2411 170.111 43.5762 141.182 54.05C71.9646 79.1096 64.6354 60.4585 33.4121 58.0504Z" fill="#FDBB96"/>
</svg>
